%TF.GenerationSoftware,KiCad,Pcbnew,9.0.6*%
%TF.CreationDate,2025-12-02T16:19:02+01:00*%
%TF.ProjectId,new pcb,6e657720-7063-4622-9e6b-696361645f70,rev?*%
%TF.SameCoordinates,Original*%
%TF.FileFunction,Copper,L1,Top*%
%TF.FilePolarity,Positive*%
%FSLAX46Y46*%
G04 Gerber Fmt 4.6, Leading zero omitted, Abs format (unit mm)*
G04 Created by KiCad (PCBNEW 9.0.6) date 2025-12-02 16:19:02*
%MOMM*%
%LPD*%
G01*
G04 APERTURE LIST*
%TA.AperFunction,SMDPad,CuDef*%
%ADD10R,1.550000X1.300000*%
%TD*%
%TA.AperFunction,ComponentPad*%
%ADD11R,1.700000X1.700000*%
%TD*%
%TA.AperFunction,ComponentPad*%
%ADD12O,1.700000X1.700000*%
%TD*%
%TA.AperFunction,ComponentPad*%
%ADD13R,0.850000X0.850000*%
%TD*%
%TA.AperFunction,ComponentPad*%
%ADD14C,0.850000*%
%TD*%
%TA.AperFunction,ViaPad*%
%ADD15C,0.600000*%
%TD*%
%TA.AperFunction,Conductor*%
%ADD16C,0.300000*%
%TD*%
%TA.AperFunction,Conductor*%
%ADD17C,0.250000*%
%TD*%
G04 APERTURE END LIST*
D10*
%TO.P,S2,1*%
%TO.N,BTN_TX*%
X151025000Y-84250000D03*
%TO.P,S2,3*%
%TO.N,GND*%
X158975000Y-84250000D03*
%TO.P,S2,2*%
%TO.N,BTN_TX*%
X151025000Y-88750000D03*
%TO.P,S2,4*%
%TO.N,GND*%
X158975000Y-88750000D03*
%TD*%
%TO.P,S1,1*%
%TO.N,BTN_RX*%
X151025000Y-56250000D03*
%TO.P,S1,3*%
%TO.N,GND*%
X158975000Y-56250000D03*
%TO.P,S1,2*%
%TO.N,BTN_RX*%
X151025000Y-60750000D03*
%TO.P,S1,4*%
%TO.N,GND*%
X158975000Y-60750000D03*
%TD*%
D11*
%TO.P,J1,1,Pin_1*%
%TO.N,unconnected-(J1-Pin_1-Pad1)*%
X127940000Y-97460000D03*
D12*
%TO.P,J1,2,Pin_2*%
%TO.N,/IOREF*%
X130480000Y-97460000D03*
%TO.P,J1,3,Pin_3*%
%TO.N,/~{RESET}*%
X133020000Y-97460000D03*
%TO.P,J1,4,Pin_4*%
%TO.N,+3V3*%
X135560000Y-97460000D03*
%TO.P,J1,5,Pin_5*%
%TO.N,unconnected-(J1-Pin_5-Pad5)*%
X138100000Y-97460000D03*
%TO.P,J1,6,Pin_6*%
%TO.N,GND*%
X140640000Y-97460000D03*
%TO.P,J1,7,Pin_7*%
X143180000Y-97460000D03*
%TO.P,J1,8,Pin_8*%
%TO.N,unconnected-(J1-Pin_8-Pad8)*%
X145720000Y-97460000D03*
%TD*%
D11*
%TO.P,J3,1,Pin_1*%
%TO.N,/A0*%
X150800000Y-97460000D03*
D12*
%TO.P,J3,2,Pin_2*%
%TO.N,/A1*%
X153340000Y-97460000D03*
%TO.P,J3,3,Pin_3*%
%TO.N,/A2*%
X155880000Y-97460000D03*
%TO.P,J3,4,Pin_4*%
%TO.N,/A3*%
X158420000Y-97460000D03*
%TO.P,J3,5,Pin_5*%
%TO.N,/SDA{slash}A4*%
X160960000Y-97460000D03*
%TO.P,J3,6,Pin_6*%
%TO.N,/SCL{slash}A5*%
X163500000Y-97460000D03*
%TD*%
D11*
%TO.P,J2,1,Pin_1*%
%TO.N,/SCL{slash}A5*%
X118796000Y-49200000D03*
D12*
%TO.P,J2,2,Pin_2*%
%TO.N,/SDA{slash}A4*%
X121336000Y-49200000D03*
%TO.P,J2,3,Pin_3*%
%TO.N,/AREF*%
X123876000Y-49200000D03*
%TO.P,J2,4,Pin_4*%
%TO.N,GND*%
X126416000Y-49200000D03*
%TO.P,J2,5,Pin_5*%
%TO.N,SPI_SCK*%
X128956000Y-49200000D03*
%TO.P,J2,6,Pin_6*%
%TO.N,/12*%
X131496000Y-49200000D03*
%TO.P,J2,7,Pin_7*%
%TO.N,SPI_MOSI*%
X134036000Y-49200000D03*
%TO.P,J2,8,Pin_8*%
%TO.N,OLED_CS*%
X136576000Y-49200000D03*
%TO.P,J2,9,Pin_9*%
%TO.N,OLED_DC*%
X139116000Y-49200000D03*
%TO.P,J2,10,Pin_10*%
%TO.N,OLED_RES*%
X141656000Y-49200000D03*
%TD*%
D11*
%TO.P,J4,1,Pin_1*%
%TO.N,/7*%
X145720000Y-49200000D03*
D12*
%TO.P,J4,2,Pin_2*%
%TO.N,/\u002A6*%
X148260000Y-49200000D03*
%TO.P,J4,3,Pin_3*%
%TO.N,/\u002A5*%
X150800000Y-49200000D03*
%TO.P,J4,4,Pin_4*%
%TO.N,/4*%
X153340000Y-49200000D03*
%TO.P,J4,5,Pin_5*%
%TO.N,BTN_TX*%
X155880000Y-49200000D03*
%TO.P,J4,6,Pin_6*%
%TO.N,BTN_RX*%
X158420000Y-49200000D03*
%TO.P,J4,7,Pin_7*%
%TO.N,/TX{slash}1*%
X160960000Y-49200000D03*
%TO.P,J4,8,Pin_8*%
%TO.N,/RX{slash}0*%
X163500000Y-49200000D03*
%TD*%
D13*
%TO.P,J5,1,Pin_1*%
%TO.N,GND*%
X123500000Y-58000000D03*
D14*
%TO.P,J5,2,Pin_2*%
%TO.N,+3V3*%
X124500000Y-58000000D03*
%TO.P,J5,3,Pin_3*%
%TO.N,SPI_SCK*%
X125500000Y-58000000D03*
%TO.P,J5,4,Pin_4*%
%TO.N,SPI_MOSI*%
X126500000Y-58000000D03*
%TO.P,J5,5,Pin_5*%
%TO.N,OLED_RES*%
X127500000Y-58000000D03*
%TO.P,J5,6,Pin_6*%
%TO.N,OLED_DC*%
X128500000Y-58000000D03*
%TO.P,J5,7,Pin_7*%
%TO.N,OLED_CS*%
X129500000Y-58000000D03*
%TD*%
D15*
%TO.N,GND*%
X139000000Y-58000000D03*
X136000000Y-55000000D03*
X128000000Y-55000000D03*
%TO.N,BTN_TX*%
X150500000Y-76500000D03*
%TO.N,/SDA{slash}A4*%
X117500000Y-65000000D03*
%TD*%
D16*
%TO.N,OLED_DC*%
X128500000Y-59500000D02*
X128500000Y-58062075D01*
X129000000Y-60000000D02*
X128500000Y-59500000D01*
X135000000Y-60000000D02*
X129000000Y-60000000D01*
X139116000Y-55884000D02*
X135000000Y-60000000D01*
X139116000Y-49200000D02*
X139116000Y-55884000D01*
%TO.N,OLED_RES*%
X127500000Y-60000000D02*
X127500000Y-58000000D01*
X128500000Y-61000000D02*
X127500000Y-60000000D01*
X142000000Y-57000000D02*
X138000000Y-61000000D01*
X138000000Y-61000000D02*
X128500000Y-61000000D01*
X142000000Y-49544000D02*
X142000000Y-57000000D01*
X141656000Y-49200000D02*
X142000000Y-49544000D01*
%TO.N,OLED_CS*%
X129500000Y-53000000D02*
X129500000Y-58000000D01*
X136576000Y-49424000D02*
X134000000Y-52000000D01*
X134000000Y-52000000D02*
X130500000Y-52000000D01*
X130500000Y-52000000D02*
X129500000Y-53000000D01*
X136576000Y-49200000D02*
X136576000Y-49424000D01*
%TO.N,SPI_MOSI*%
X134036000Y-49964000D02*
X134036000Y-49200000D01*
X133000000Y-51000000D02*
X134036000Y-49964000D01*
X129000000Y-51000000D02*
X133000000Y-51000000D01*
X126500000Y-53500000D02*
X129000000Y-51000000D01*
X126500000Y-58000000D02*
X126500000Y-53500000D01*
D17*
%TO.N,BTN_RX*%
X151370000Y-56250000D02*
X151025000Y-56250000D01*
X158420000Y-49200000D02*
X151370000Y-56250000D01*
D16*
%TO.N,BTN_TX*%
X151025000Y-84250000D02*
X151025000Y-77025000D01*
X151025000Y-77025000D02*
X150500000Y-76500000D01*
%TO.N,+3V3*%
X124500000Y-86400000D02*
X124500000Y-58000000D01*
X135560000Y-97460000D02*
X124500000Y-86400000D01*
D17*
X135460000Y-97460000D02*
X135560000Y-97460000D01*
D16*
%TO.N,/SDA{slash}A4*%
X117500000Y-65000000D02*
X117500000Y-53036000D01*
X117500000Y-53036000D02*
X121336000Y-49200000D01*
%TO.N,BTN_RX*%
X151025000Y-60750000D02*
X151025000Y-56250000D01*
D17*
%TO.N,OLED_DC*%
X128500000Y-58062075D02*
X128500000Y-58000000D01*
D16*
%TO.N,SPI_SCK*%
X125500000Y-52656000D02*
X125500000Y-58000000D01*
X128956000Y-49200000D02*
X125500000Y-52656000D01*
%TO.N,BTN_TX*%
X151025000Y-84250000D02*
X151025000Y-88750000D01*
%TD*%
%TA.AperFunction,Conductor*%
%TO.N,GND*%
G36*
X113582539Y-49019685D02*
G01*
X113628294Y-49072489D01*
X113639500Y-49124000D01*
X113639500Y-49325961D01*
X113678910Y-49574785D01*
X113756760Y-49814383D01*
X113806504Y-49912009D01*
X113846253Y-49990022D01*
X113871132Y-50038848D01*
X114019201Y-50242649D01*
X114019205Y-50242654D01*
X114197345Y-50420794D01*
X114197350Y-50420798D01*
X114375117Y-50549952D01*
X114401155Y-50568870D01*
X114523071Y-50630989D01*
X114625616Y-50683239D01*
X114625618Y-50683239D01*
X114625621Y-50683241D01*
X114865215Y-50761090D01*
X115114038Y-50800500D01*
X115114039Y-50800500D01*
X115365961Y-50800500D01*
X115365962Y-50800500D01*
X115614785Y-50761090D01*
X115854379Y-50683241D01*
X116078845Y-50568870D01*
X116282656Y-50420793D01*
X116460793Y-50242656D01*
X116608870Y-50038845D01*
X116723241Y-49814379D01*
X116801090Y-49574785D01*
X116840500Y-49325962D01*
X116840500Y-49124000D01*
X116860185Y-49056961D01*
X116912989Y-49011206D01*
X116964500Y-49000000D01*
X117313500Y-49000000D01*
X117380539Y-49019685D01*
X117426294Y-49072489D01*
X117437500Y-49124000D01*
X117437500Y-50098654D01*
X117444011Y-50159202D01*
X117444011Y-50159204D01*
X117484968Y-50269011D01*
X117495111Y-50296204D01*
X117582739Y-50413261D01*
X117699796Y-50500889D01*
X117836799Y-50551989D01*
X117864050Y-50554918D01*
X117897345Y-50558499D01*
X117897362Y-50558500D01*
X118746879Y-50558500D01*
X118813918Y-50578185D01*
X118859673Y-50630989D01*
X118869617Y-50700147D01*
X118840592Y-50763703D01*
X118834560Y-50770181D01*
X116988513Y-52616225D01*
X116988510Y-52616228D01*
X116918607Y-52720847D01*
X116918607Y-52720848D01*
X116916443Y-52724085D01*
X116916442Y-52724087D01*
X116866807Y-52843918D01*
X116866804Y-52843928D01*
X116841500Y-52971140D01*
X116841500Y-64492638D01*
X116821815Y-64559677D01*
X116820603Y-64561528D01*
X116783516Y-64617033D01*
X116722570Y-64764168D01*
X116722568Y-64764176D01*
X116691500Y-64920365D01*
X116691500Y-65079634D01*
X116722568Y-65235823D01*
X116722570Y-65235831D01*
X116783517Y-65382969D01*
X116871995Y-65515387D01*
X116872001Y-65515394D01*
X116984605Y-65627998D01*
X116984612Y-65628004D01*
X117117030Y-65716482D01*
X117117031Y-65716482D01*
X117117032Y-65716483D01*
X117264169Y-65777430D01*
X117420365Y-65808499D01*
X117420369Y-65808500D01*
X117420370Y-65808500D01*
X117579631Y-65808500D01*
X117579632Y-65808499D01*
X117735831Y-65777430D01*
X117882968Y-65716483D01*
X118015389Y-65628003D01*
X118128003Y-65515389D01*
X118216483Y-65382968D01*
X118277430Y-65235831D01*
X118308500Y-65079630D01*
X118308500Y-64920370D01*
X118277430Y-64764169D01*
X118216483Y-64617032D01*
X118179397Y-64561528D01*
X118158520Y-64494850D01*
X118158500Y-64492638D01*
X118158500Y-58472844D01*
X122575000Y-58472844D01*
X122581401Y-58532372D01*
X122581403Y-58532379D01*
X122631645Y-58667086D01*
X122631649Y-58667093D01*
X122717809Y-58782187D01*
X122717812Y-58782190D01*
X122832906Y-58868350D01*
X122832913Y-58868354D01*
X122967620Y-58918596D01*
X122967627Y-58918598D01*
X123027155Y-58924999D01*
X123027172Y-58925000D01*
X123250000Y-58925000D01*
X123250000Y-58250000D01*
X122575000Y-58250000D01*
X122575000Y-58472844D01*
X118158500Y-58472844D01*
X118158500Y-57527155D01*
X122575000Y-57527155D01*
X122575000Y-57750000D01*
X123250000Y-57750000D01*
X123250000Y-57075000D01*
X123027155Y-57075000D01*
X122967627Y-57081401D01*
X122967620Y-57081403D01*
X122832913Y-57131645D01*
X122832906Y-57131649D01*
X122717812Y-57217809D01*
X122717809Y-57217812D01*
X122631649Y-57332906D01*
X122631645Y-57332913D01*
X122581403Y-57467620D01*
X122581401Y-57467627D01*
X122575000Y-57527155D01*
X118158500Y-57527155D01*
X118158500Y-53360121D01*
X118178185Y-53293082D01*
X118194819Y-53272440D01*
X119231031Y-52236228D01*
X120907882Y-50559376D01*
X120969203Y-50525893D01*
X121014959Y-50524586D01*
X121098516Y-50537820D01*
X121229084Y-50558500D01*
X121229085Y-50558500D01*
X121442915Y-50558500D01*
X121442916Y-50558500D01*
X121654116Y-50525049D01*
X121857483Y-50458972D01*
X122048009Y-50361894D01*
X122221004Y-50236206D01*
X122372206Y-50085004D01*
X122497894Y-49912009D01*
X122497896Y-49912004D01*
X122500270Y-49908132D01*
X122552080Y-49861254D01*
X122621009Y-49849829D01*
X122685173Y-49877483D01*
X122711730Y-49908132D01*
X122714103Y-49912005D01*
X122714106Y-49912009D01*
X122839794Y-50085004D01*
X122990996Y-50236206D01*
X123163991Y-50361894D01*
X123217500Y-50389158D01*
X123354516Y-50458972D01*
X123354519Y-50458973D01*
X123456200Y-50492010D01*
X123557884Y-50525049D01*
X123769084Y-50558500D01*
X123769085Y-50558500D01*
X123982915Y-50558500D01*
X123982916Y-50558500D01*
X124194116Y-50525049D01*
X124397483Y-50458972D01*
X124588009Y-50361894D01*
X124761004Y-50236206D01*
X124912206Y-50085004D01*
X125037894Y-49912009D01*
X125040283Y-49907319D01*
X125088254Y-49856522D01*
X125156074Y-49839724D01*
X125222210Y-49862258D01*
X125258201Y-49903788D01*
X125258832Y-49903402D01*
X125261164Y-49907207D01*
X125261251Y-49907308D01*
X125261376Y-49907554D01*
X125386272Y-50079459D01*
X125386276Y-50079464D01*
X125536535Y-50229723D01*
X125536540Y-50229727D01*
X125708442Y-50354620D01*
X125897782Y-50451095D01*
X126099871Y-50516757D01*
X126166000Y-50527231D01*
X126166000Y-49633012D01*
X126223007Y-49665925D01*
X126350174Y-49700000D01*
X126481826Y-49700000D01*
X126608993Y-49665925D01*
X126666000Y-49633012D01*
X126666000Y-50507376D01*
X126646315Y-50574415D01*
X126629681Y-50595057D01*
X124988510Y-52236228D01*
X124937938Y-52311914D01*
X124937939Y-52311915D01*
X124916442Y-52344087D01*
X124866807Y-52463918D01*
X124866804Y-52463928D01*
X124841500Y-52591140D01*
X124841500Y-56965045D01*
X124821815Y-57032084D01*
X124769011Y-57077839D01*
X124699853Y-57087783D01*
X124693309Y-57086662D01*
X124591946Y-57066500D01*
X124591942Y-57066500D01*
X124408058Y-57066500D01*
X124408055Y-57066500D01*
X124227715Y-57102371D01*
X124227707Y-57102374D01*
X124206869Y-57111005D01*
X124137399Y-57118471D01*
X124116088Y-57112624D01*
X124032380Y-57081403D01*
X124032372Y-57081401D01*
X123972844Y-57075000D01*
X123750000Y-57075000D01*
X123750000Y-57404583D01*
X123730315Y-57471622D01*
X123729103Y-57473473D01*
X123672740Y-57557825D01*
X123602375Y-57727703D01*
X123602372Y-57727715D01*
X123594269Y-57768449D01*
X123549728Y-57750000D01*
X123450272Y-57750000D01*
X123358386Y-57788060D01*
X123288060Y-57858386D01*
X123250000Y-57950272D01*
X123250000Y-58049728D01*
X123288060Y-58141614D01*
X123358386Y-58211940D01*
X123450272Y-58250000D01*
X123549728Y-58250000D01*
X123594269Y-58231550D01*
X123602372Y-58272284D01*
X123602375Y-58272296D01*
X123672739Y-58442171D01*
X123672746Y-58442183D01*
X123729102Y-58526525D01*
X123749980Y-58593202D01*
X123750000Y-58595416D01*
X123750000Y-58925000D01*
X123763510Y-58938510D01*
X123784539Y-58944685D01*
X123830294Y-58997489D01*
X123841500Y-59049000D01*
X123841500Y-86335143D01*
X123841500Y-86464857D01*
X123841500Y-86464859D01*
X123841499Y-86464859D01*
X123866804Y-86592071D01*
X123866806Y-86592077D01*
X123916443Y-86711913D01*
X123916447Y-86711920D01*
X123988510Y-86819771D01*
X123988511Y-86819772D01*
X133058559Y-95889819D01*
X133092044Y-95951142D01*
X133087060Y-96020834D01*
X133045188Y-96076767D01*
X132979724Y-96101184D01*
X132970878Y-96101500D01*
X132913084Y-96101500D01*
X132842684Y-96112650D01*
X132701882Y-96134951D01*
X132498519Y-96201026D01*
X132498516Y-96201027D01*
X132307990Y-96298106D01*
X132134993Y-96423796D01*
X131983796Y-96574993D01*
X131858105Y-96747991D01*
X131855727Y-96751873D01*
X131803914Y-96798748D01*
X131734984Y-96810169D01*
X131670822Y-96782512D01*
X131644273Y-96751873D01*
X131641894Y-96747991D01*
X131641891Y-96747987D01*
X131516206Y-96574996D01*
X131365004Y-96423794D01*
X131192009Y-96298106D01*
X131001483Y-96201027D01*
X131001480Y-96201026D01*
X130798117Y-96134951D01*
X130692516Y-96118225D01*
X130586916Y-96101500D01*
X130373084Y-96101500D01*
X130302684Y-96112650D01*
X130161882Y-96134951D01*
X129958519Y-96201026D01*
X129958516Y-96201027D01*
X129767990Y-96298106D01*
X129594997Y-96423793D01*
X129489818Y-96528972D01*
X129428495Y-96562456D01*
X129358803Y-96557472D01*
X129302870Y-96515600D01*
X129285958Y-96484629D01*
X129240889Y-96363796D01*
X129153261Y-96246739D01*
X129036204Y-96159111D01*
X129021182Y-96153508D01*
X128899203Y-96108011D01*
X128838654Y-96101500D01*
X128838638Y-96101500D01*
X127041362Y-96101500D01*
X127041345Y-96101500D01*
X126980797Y-96108011D01*
X126980795Y-96108011D01*
X126843795Y-96159111D01*
X126726739Y-96246739D01*
X126639111Y-96363795D01*
X126588011Y-96500795D01*
X126588011Y-96500797D01*
X126581500Y-96561345D01*
X126581500Y-98358654D01*
X126588011Y-98419202D01*
X126588011Y-98419204D01*
X126619138Y-98502656D01*
X126639111Y-98556204D01*
X126726739Y-98673261D01*
X126843796Y-98760889D01*
X126980799Y-98811989D01*
X127008050Y-98814918D01*
X127041345Y-98818499D01*
X127041362Y-98818500D01*
X128838638Y-98818500D01*
X128838654Y-98818499D01*
X128865692Y-98815591D01*
X128899201Y-98811989D01*
X129036204Y-98760889D01*
X129153261Y-98673261D01*
X129240889Y-98556204D01*
X129285957Y-98435371D01*
X129327827Y-98379442D01*
X129393291Y-98355025D01*
X129461564Y-98369877D01*
X129489818Y-98391028D01*
X129594996Y-98496206D01*
X129767991Y-98621894D01*
X129854542Y-98665994D01*
X129958516Y-98718972D01*
X129958519Y-98718973D01*
X130060200Y-98752010D01*
X130161884Y-98785049D01*
X130373084Y-98818500D01*
X130373085Y-98818500D01*
X130586915Y-98818500D01*
X130586916Y-98818500D01*
X130798116Y-98785049D01*
X131001483Y-98718972D01*
X131192009Y-98621894D01*
X131365004Y-98496206D01*
X131516206Y-98345004D01*
X131641894Y-98172009D01*
X131641896Y-98172004D01*
X131644270Y-98168132D01*
X131696080Y-98121254D01*
X131765009Y-98109829D01*
X131829173Y-98137483D01*
X131855730Y-98168132D01*
X131858103Y-98172005D01*
X131858105Y-98172008D01*
X131858106Y-98172009D01*
X131983794Y-98345004D01*
X132134996Y-98496206D01*
X132307991Y-98621894D01*
X132394542Y-98665994D01*
X132498516Y-98718972D01*
X132498519Y-98718973D01*
X132600200Y-98752010D01*
X132701884Y-98785049D01*
X132913084Y-98818500D01*
X132913085Y-98818500D01*
X133126915Y-98818500D01*
X133126916Y-98818500D01*
X133338116Y-98785049D01*
X133541483Y-98718972D01*
X133732009Y-98621894D01*
X133905004Y-98496206D01*
X134056206Y-98345004D01*
X134181894Y-98172009D01*
X134181896Y-98172004D01*
X134184270Y-98168132D01*
X134236080Y-98121254D01*
X134305009Y-98109829D01*
X134369173Y-98137483D01*
X134395730Y-98168132D01*
X134398103Y-98172005D01*
X134398105Y-98172008D01*
X134398106Y-98172009D01*
X134523794Y-98345004D01*
X134674996Y-98496206D01*
X134847991Y-98621894D01*
X134934542Y-98665994D01*
X135038516Y-98718972D01*
X135038519Y-98718973D01*
X135140200Y-98752010D01*
X135241884Y-98785049D01*
X135453084Y-98818500D01*
X135453085Y-98818500D01*
X135666915Y-98818500D01*
X135666916Y-98818500D01*
X135878116Y-98785049D01*
X136081483Y-98718972D01*
X136272009Y-98621894D01*
X136445004Y-98496206D01*
X136596206Y-98345004D01*
X136721894Y-98172009D01*
X136721896Y-98172004D01*
X136724270Y-98168132D01*
X136776080Y-98121254D01*
X136845009Y-98109829D01*
X136909173Y-98137483D01*
X136935730Y-98168132D01*
X136938103Y-98172005D01*
X136938105Y-98172008D01*
X136938106Y-98172009D01*
X137063794Y-98345004D01*
X137214996Y-98496206D01*
X137387991Y-98621894D01*
X137474542Y-98665994D01*
X137578516Y-98718972D01*
X137578519Y-98718973D01*
X137680200Y-98752010D01*
X137781884Y-98785049D01*
X137993084Y-98818500D01*
X137993085Y-98818500D01*
X138206915Y-98818500D01*
X138206916Y-98818500D01*
X138418116Y-98785049D01*
X138621483Y-98718972D01*
X138812009Y-98621894D01*
X138985004Y-98496206D01*
X139136206Y-98345004D01*
X139261894Y-98172009D01*
X139264283Y-98167319D01*
X139312254Y-98116522D01*
X139380074Y-98099724D01*
X139446210Y-98122258D01*
X139482201Y-98163788D01*
X139482832Y-98163402D01*
X139485164Y-98167207D01*
X139485251Y-98167308D01*
X139485376Y-98167554D01*
X139610272Y-98339459D01*
X139610276Y-98339464D01*
X139760535Y-98489723D01*
X139760540Y-98489727D01*
X139932442Y-98614620D01*
X140121782Y-98711095D01*
X140323871Y-98776757D01*
X140390000Y-98787231D01*
X140390000Y-97893012D01*
X140447007Y-97925925D01*
X140574174Y-97960000D01*
X140705826Y-97960000D01*
X140832993Y-97925925D01*
X140890000Y-97893012D01*
X140890000Y-98787230D01*
X140956126Y-98776757D01*
X140956129Y-98776757D01*
X141158217Y-98711095D01*
X141347557Y-98614620D01*
X141519459Y-98489727D01*
X141519464Y-98489723D01*
X141669723Y-98339464D01*
X141669727Y-98339459D01*
X141794620Y-98167558D01*
X141799514Y-98157954D01*
X141847488Y-98107157D01*
X141915308Y-98090361D01*
X141981444Y-98112897D01*
X142020486Y-98157954D01*
X142025379Y-98167558D01*
X142150272Y-98339459D01*
X142150276Y-98339464D01*
X142300535Y-98489723D01*
X142300540Y-98489727D01*
X142472442Y-98614620D01*
X142661782Y-98711095D01*
X142863871Y-98776757D01*
X142930000Y-98787231D01*
X142930000Y-97893012D01*
X142987007Y-97925925D01*
X143114174Y-97960000D01*
X143245826Y-97960000D01*
X143372993Y-97925925D01*
X143430000Y-97893012D01*
X143430000Y-98787230D01*
X143496126Y-98776757D01*
X143496129Y-98776757D01*
X143698217Y-98711095D01*
X143887557Y-98614620D01*
X144059459Y-98489727D01*
X144059464Y-98489723D01*
X144209723Y-98339464D01*
X144209727Y-98339459D01*
X144334619Y-98167560D01*
X144334738Y-98167327D01*
X144334808Y-98167252D01*
X144337168Y-98163402D01*
X144337976Y-98163897D01*
X144382707Y-98116526D01*
X144450526Y-98099723D01*
X144516663Y-98122254D01*
X144555712Y-98167311D01*
X144558105Y-98172008D01*
X144600002Y-98229674D01*
X144683794Y-98345004D01*
X144834996Y-98496206D01*
X145007991Y-98621894D01*
X145094542Y-98665994D01*
X145198516Y-98718972D01*
X145198519Y-98718973D01*
X145300200Y-98752010D01*
X145401884Y-98785049D01*
X145613084Y-98818500D01*
X145613085Y-98818500D01*
X145826915Y-98818500D01*
X145826916Y-98818500D01*
X146038116Y-98785049D01*
X146241483Y-98718972D01*
X146432009Y-98621894D01*
X146605004Y-98496206D01*
X146756206Y-98345004D01*
X146881894Y-98172009D01*
X146978972Y-97981483D01*
X147045049Y-97778116D01*
X147078500Y-97566916D01*
X147078500Y-97353084D01*
X147045049Y-97141884D01*
X146978972Y-96938517D01*
X146978972Y-96938516D01*
X146931639Y-96845621D01*
X146881894Y-96747991D01*
X146756206Y-96574996D01*
X146742555Y-96561345D01*
X149441500Y-96561345D01*
X149441500Y-98358654D01*
X149448011Y-98419202D01*
X149448011Y-98419204D01*
X149479138Y-98502656D01*
X149499111Y-98556204D01*
X149586739Y-98673261D01*
X149703796Y-98760889D01*
X149840799Y-98811989D01*
X149868050Y-98814918D01*
X149901345Y-98818499D01*
X149901362Y-98818500D01*
X151698638Y-98818500D01*
X151698654Y-98818499D01*
X151725692Y-98815591D01*
X151759201Y-98811989D01*
X151896204Y-98760889D01*
X152013261Y-98673261D01*
X152100889Y-98556204D01*
X152145957Y-98435371D01*
X152187827Y-98379442D01*
X152253291Y-98355025D01*
X152321564Y-98369877D01*
X152349818Y-98391028D01*
X152454996Y-98496206D01*
X152627991Y-98621894D01*
X152714542Y-98665994D01*
X152818516Y-98718972D01*
X152818519Y-98718973D01*
X152920200Y-98752010D01*
X153021884Y-98785049D01*
X153233084Y-98818500D01*
X153233085Y-98818500D01*
X153446915Y-98818500D01*
X153446916Y-98818500D01*
X153658116Y-98785049D01*
X153861483Y-98718972D01*
X154052009Y-98621894D01*
X154225004Y-98496206D01*
X154376206Y-98345004D01*
X154501894Y-98172009D01*
X154501896Y-98172004D01*
X154504270Y-98168132D01*
X154556080Y-98121254D01*
X154625009Y-98109829D01*
X154689173Y-98137483D01*
X154715730Y-98168132D01*
X154718103Y-98172005D01*
X154718105Y-98172008D01*
X154718106Y-98172009D01*
X154843794Y-98345004D01*
X154994996Y-98496206D01*
X155167991Y-98621894D01*
X155254542Y-98665994D01*
X155358516Y-98718972D01*
X155358519Y-98718973D01*
X155460200Y-98752010D01*
X155561884Y-98785049D01*
X155773084Y-98818500D01*
X155773085Y-98818500D01*
X155986915Y-98818500D01*
X155986916Y-98818500D01*
X156198116Y-98785049D01*
X156401483Y-98718972D01*
X156592009Y-98621894D01*
X156765004Y-98496206D01*
X156916206Y-98345004D01*
X157041894Y-98172009D01*
X157041896Y-98172004D01*
X157044270Y-98168132D01*
X157096080Y-98121254D01*
X157165009Y-98109829D01*
X157229173Y-98137483D01*
X157255730Y-98168132D01*
X157258103Y-98172005D01*
X157258105Y-98172008D01*
X157258106Y-98172009D01*
X157383794Y-98345004D01*
X157534996Y-98496206D01*
X157707991Y-98621894D01*
X157794542Y-98665994D01*
X157898516Y-98718972D01*
X157898519Y-98718973D01*
X158000200Y-98752010D01*
X158101884Y-98785049D01*
X158313084Y-98818500D01*
X158313085Y-98818500D01*
X158526915Y-98818500D01*
X158526916Y-98818500D01*
X158738116Y-98785049D01*
X158941483Y-98718972D01*
X159132009Y-98621894D01*
X159305004Y-98496206D01*
X159456206Y-98345004D01*
X159581894Y-98172009D01*
X159581896Y-98172004D01*
X159584270Y-98168132D01*
X159636080Y-98121254D01*
X159705009Y-98109829D01*
X159769173Y-98137483D01*
X159795730Y-98168132D01*
X159798103Y-98172005D01*
X159798105Y-98172008D01*
X159798106Y-98172009D01*
X159923794Y-98345004D01*
X160074996Y-98496206D01*
X160247991Y-98621894D01*
X160334542Y-98665994D01*
X160438516Y-98718972D01*
X160438519Y-98718973D01*
X160540200Y-98752010D01*
X160641884Y-98785049D01*
X160853084Y-98818500D01*
X160853085Y-98818500D01*
X161066915Y-98818500D01*
X161066916Y-98818500D01*
X161278116Y-98785049D01*
X161481483Y-98718972D01*
X161672009Y-98621894D01*
X161845004Y-98496206D01*
X161996206Y-98345004D01*
X162121894Y-98172009D01*
X162121896Y-98172004D01*
X162124270Y-98168132D01*
X162176080Y-98121254D01*
X162245009Y-98109829D01*
X162309173Y-98137483D01*
X162335730Y-98168132D01*
X162338103Y-98172005D01*
X162338105Y-98172008D01*
X162338106Y-98172009D01*
X162463794Y-98345004D01*
X162614996Y-98496206D01*
X162787991Y-98621894D01*
X162874542Y-98665994D01*
X162978516Y-98718972D01*
X162978519Y-98718973D01*
X163080200Y-98752010D01*
X163181884Y-98785049D01*
X163393084Y-98818500D01*
X163393085Y-98818500D01*
X163606915Y-98818500D01*
X163606916Y-98818500D01*
X163818116Y-98785049D01*
X164021483Y-98718972D01*
X164212009Y-98621894D01*
X164385004Y-98496206D01*
X164536206Y-98345004D01*
X164661894Y-98172009D01*
X164758972Y-97981483D01*
X164825049Y-97778116D01*
X164858500Y-97566916D01*
X164858500Y-97353084D01*
X164825049Y-97141884D01*
X164758972Y-96938517D01*
X164758972Y-96938516D01*
X164703495Y-96829638D01*
X164661894Y-96747991D01*
X164536206Y-96574996D01*
X164385004Y-96423794D01*
X164212009Y-96298106D01*
X164021483Y-96201027D01*
X164021480Y-96201026D01*
X163818117Y-96134951D01*
X163712516Y-96118225D01*
X163606916Y-96101500D01*
X163393084Y-96101500D01*
X163322684Y-96112650D01*
X163181882Y-96134951D01*
X162978519Y-96201026D01*
X162978516Y-96201027D01*
X162787990Y-96298106D01*
X162614993Y-96423796D01*
X162463796Y-96574993D01*
X162338105Y-96747991D01*
X162335727Y-96751873D01*
X162283914Y-96798748D01*
X162214984Y-96810169D01*
X162150822Y-96782512D01*
X162124273Y-96751873D01*
X162121894Y-96747991D01*
X162121891Y-96747987D01*
X161996206Y-96574996D01*
X161845004Y-96423794D01*
X161672009Y-96298106D01*
X161481483Y-96201027D01*
X161481480Y-96201026D01*
X161278117Y-96134951D01*
X161172516Y-96118225D01*
X161066916Y-96101500D01*
X160853084Y-96101500D01*
X160782684Y-96112650D01*
X160641882Y-96134951D01*
X160438519Y-96201026D01*
X160438516Y-96201027D01*
X160247990Y-96298106D01*
X160074993Y-96423796D01*
X159923796Y-96574993D01*
X159798105Y-96747991D01*
X159795727Y-96751873D01*
X159743914Y-96798748D01*
X159674984Y-96810169D01*
X159610822Y-96782512D01*
X159584273Y-96751873D01*
X159581894Y-96747991D01*
X159581891Y-96747987D01*
X159456206Y-96574996D01*
X159305004Y-96423794D01*
X159132009Y-96298106D01*
X158941483Y-96201027D01*
X158941480Y-96201026D01*
X158738117Y-96134951D01*
X158632516Y-96118225D01*
X158526916Y-96101500D01*
X158313084Y-96101500D01*
X158242684Y-96112650D01*
X158101882Y-96134951D01*
X157898519Y-96201026D01*
X157898516Y-96201027D01*
X157707990Y-96298106D01*
X157534993Y-96423796D01*
X157383796Y-96574993D01*
X157258105Y-96747991D01*
X157255727Y-96751873D01*
X157203914Y-96798748D01*
X157134984Y-96810169D01*
X157070822Y-96782512D01*
X157044273Y-96751873D01*
X157041894Y-96747991D01*
X157041891Y-96747987D01*
X156916206Y-96574996D01*
X156765004Y-96423794D01*
X156592009Y-96298106D01*
X156401483Y-96201027D01*
X156401480Y-96201026D01*
X156198117Y-96134951D01*
X156092516Y-96118225D01*
X155986916Y-96101500D01*
X155773084Y-96101500D01*
X155702684Y-96112650D01*
X155561882Y-96134951D01*
X155358519Y-96201026D01*
X155358516Y-96201027D01*
X155167990Y-96298106D01*
X154994993Y-96423796D01*
X154843796Y-96574993D01*
X154718105Y-96747991D01*
X154715727Y-96751873D01*
X154663914Y-96798748D01*
X154594984Y-96810169D01*
X154530822Y-96782512D01*
X154504273Y-96751873D01*
X154501894Y-96747991D01*
X154501891Y-96747987D01*
X154376206Y-96574996D01*
X154225004Y-96423794D01*
X154052009Y-96298106D01*
X153861483Y-96201027D01*
X153861480Y-96201026D01*
X153658117Y-96134951D01*
X153552516Y-96118225D01*
X153446916Y-96101500D01*
X153233084Y-96101500D01*
X153162684Y-96112650D01*
X153021882Y-96134951D01*
X152818519Y-96201026D01*
X152818516Y-96201027D01*
X152627990Y-96298106D01*
X152454997Y-96423793D01*
X152349818Y-96528972D01*
X152288495Y-96562456D01*
X152218803Y-96557472D01*
X152162870Y-96515600D01*
X152145958Y-96484629D01*
X152100889Y-96363796D01*
X152013261Y-96246739D01*
X151896204Y-96159111D01*
X151881182Y-96153508D01*
X151759203Y-96108011D01*
X151698654Y-96101500D01*
X151698638Y-96101500D01*
X149901362Y-96101500D01*
X149901345Y-96101500D01*
X149840797Y-96108011D01*
X149840795Y-96108011D01*
X149703795Y-96159111D01*
X149586739Y-96246739D01*
X149499111Y-96363795D01*
X149448011Y-96500795D01*
X149448011Y-96500797D01*
X149441500Y-96561345D01*
X146742555Y-96561345D01*
X146605004Y-96423794D01*
X146432009Y-96298106D01*
X146241483Y-96201027D01*
X146241480Y-96201026D01*
X146038117Y-96134951D01*
X145932516Y-96118225D01*
X145826916Y-96101500D01*
X145613084Y-96101500D01*
X145542684Y-96112650D01*
X145401882Y-96134951D01*
X145198519Y-96201026D01*
X145198516Y-96201027D01*
X145007990Y-96298106D01*
X144834993Y-96423796D01*
X144683796Y-96574993D01*
X144558103Y-96747994D01*
X144555709Y-96752693D01*
X144507731Y-96803485D01*
X144439908Y-96820275D01*
X144373775Y-96797732D01*
X144337800Y-96756210D01*
X144337168Y-96756598D01*
X144334829Y-96752781D01*
X144334743Y-96752682D01*
X144334620Y-96752441D01*
X144209727Y-96580540D01*
X144209723Y-96580535D01*
X144059464Y-96430276D01*
X144059459Y-96430272D01*
X143887557Y-96305379D01*
X143698215Y-96208903D01*
X143496124Y-96143241D01*
X143430000Y-96132768D01*
X143430000Y-97026988D01*
X143372993Y-96994075D01*
X143245826Y-96960000D01*
X143114174Y-96960000D01*
X142987007Y-96994075D01*
X142930000Y-97026988D01*
X142930000Y-96132768D01*
X142929999Y-96132768D01*
X142863875Y-96143241D01*
X142661784Y-96208903D01*
X142472442Y-96305379D01*
X142300540Y-96430272D01*
X142300535Y-96430276D01*
X142150276Y-96580535D01*
X142150272Y-96580540D01*
X142025377Y-96752444D01*
X142020484Y-96762048D01*
X141972509Y-96812844D01*
X141904688Y-96829638D01*
X141838553Y-96807100D01*
X141799516Y-96762048D01*
X141794622Y-96752444D01*
X141669727Y-96580540D01*
X141669723Y-96580535D01*
X141519464Y-96430276D01*
X141519459Y-96430272D01*
X141347557Y-96305379D01*
X141158215Y-96208903D01*
X140956124Y-96143241D01*
X140890000Y-96132768D01*
X140890000Y-97026988D01*
X140832993Y-96994075D01*
X140705826Y-96960000D01*
X140574174Y-96960000D01*
X140447007Y-96994075D01*
X140390000Y-97026988D01*
X140390000Y-96132768D01*
X140389999Y-96132768D01*
X140323875Y-96143241D01*
X140121784Y-96208903D01*
X139932442Y-96305379D01*
X139760540Y-96430272D01*
X139760535Y-96430276D01*
X139610276Y-96580535D01*
X139610272Y-96580540D01*
X139485376Y-96752446D01*
X139485374Y-96752448D01*
X139485246Y-96752701D01*
X139485172Y-96752779D01*
X139482832Y-96756598D01*
X139482029Y-96756106D01*
X139437264Y-96803489D01*
X139369441Y-96820274D01*
X139303309Y-96797727D01*
X139264285Y-96752683D01*
X139261895Y-96747992D01*
X139230472Y-96704742D01*
X139136206Y-96574996D01*
X138985004Y-96423794D01*
X138812009Y-96298106D01*
X138621483Y-96201027D01*
X138621480Y-96201026D01*
X138418117Y-96134951D01*
X138312516Y-96118225D01*
X138206916Y-96101500D01*
X137993084Y-96101500D01*
X137922684Y-96112650D01*
X137781882Y-96134951D01*
X137578519Y-96201026D01*
X137578516Y-96201027D01*
X137387990Y-96298106D01*
X137214993Y-96423796D01*
X137063796Y-96574993D01*
X136938105Y-96747991D01*
X136935727Y-96751873D01*
X136883914Y-96798748D01*
X136814984Y-96810169D01*
X136750822Y-96782512D01*
X136724273Y-96751873D01*
X136721894Y-96747991D01*
X136721891Y-96747987D01*
X136596206Y-96574996D01*
X136445004Y-96423794D01*
X136272009Y-96298106D01*
X136081483Y-96201027D01*
X136081480Y-96201026D01*
X135878117Y-96134951D01*
X135772516Y-96118225D01*
X135666916Y-96101500D01*
X135453084Y-96101500D01*
X135238959Y-96135413D01*
X135169666Y-96126458D01*
X135131881Y-96100621D01*
X131285298Y-92254038D01*
X164439500Y-92254038D01*
X164439500Y-92505961D01*
X164478910Y-92754785D01*
X164556760Y-92994383D01*
X164671132Y-93218848D01*
X164819201Y-93422649D01*
X164819205Y-93422654D01*
X164997345Y-93600794D01*
X164997350Y-93600798D01*
X165175117Y-93729952D01*
X165201155Y-93748870D01*
X165344184Y-93821747D01*
X165425616Y-93863239D01*
X165425618Y-93863239D01*
X165425621Y-93863241D01*
X165665215Y-93941090D01*
X165914038Y-93980500D01*
X165914039Y-93980500D01*
X166165961Y-93980500D01*
X166165962Y-93980500D01*
X166414785Y-93941090D01*
X166654379Y-93863241D01*
X166878845Y-93748870D01*
X167082656Y-93600793D01*
X167260793Y-93422656D01*
X167408870Y-93218845D01*
X167523241Y-92994379D01*
X167601090Y-92754785D01*
X167640500Y-92505962D01*
X167640500Y-92254038D01*
X167601090Y-92005215D01*
X167523241Y-91765621D01*
X167523239Y-91765618D01*
X167523239Y-91765616D01*
X167481747Y-91684184D01*
X167408870Y-91541155D01*
X167389952Y-91515117D01*
X167260798Y-91337350D01*
X167260794Y-91337345D01*
X167082654Y-91159205D01*
X167082649Y-91159201D01*
X166878848Y-91011132D01*
X166878847Y-91011131D01*
X166878845Y-91011130D01*
X166808747Y-90975413D01*
X166654383Y-90896760D01*
X166414785Y-90818910D01*
X166165962Y-90779500D01*
X165914038Y-90779500D01*
X165789626Y-90799205D01*
X165665214Y-90818910D01*
X165425616Y-90896760D01*
X165201151Y-91011132D01*
X164997350Y-91159201D01*
X164997345Y-91159205D01*
X164819205Y-91337345D01*
X164819201Y-91337350D01*
X164671132Y-91541151D01*
X164556760Y-91765616D01*
X164478910Y-92005214D01*
X164439500Y-92254038D01*
X131285298Y-92254038D01*
X125194819Y-86163559D01*
X125161334Y-86102236D01*
X125158500Y-86075878D01*
X125158500Y-76420365D01*
X149691500Y-76420365D01*
X149691500Y-76579634D01*
X149722568Y-76735823D01*
X149722570Y-76735831D01*
X149783517Y-76882969D01*
X149871995Y-77015387D01*
X149872001Y-77015394D01*
X149984605Y-77127998D01*
X149984612Y-77128004D01*
X150117030Y-77216482D01*
X150117031Y-77216482D01*
X150117032Y-77216483D01*
X150264169Y-77277430D01*
X150266681Y-77277929D01*
X150267873Y-77278553D01*
X150269999Y-77279198D01*
X150269876Y-77279600D01*
X150328593Y-77310306D01*
X150363173Y-77371018D01*
X150366500Y-77399548D01*
X150366500Y-82967500D01*
X150346815Y-83034539D01*
X150294011Y-83080294D01*
X150242500Y-83091500D01*
X150201345Y-83091500D01*
X150140797Y-83098011D01*
X150140795Y-83098011D01*
X150003795Y-83149111D01*
X149886739Y-83236739D01*
X149799111Y-83353795D01*
X149748011Y-83490795D01*
X149748011Y-83490797D01*
X149741500Y-83551345D01*
X149741500Y-84948654D01*
X149748011Y-85009202D01*
X149748011Y-85009204D01*
X149797575Y-85142086D01*
X149799111Y-85146204D01*
X149886739Y-85263261D01*
X150003796Y-85350889D01*
X150118297Y-85393596D01*
X150135463Y-85399999D01*
X150140799Y-85401989D01*
X150168050Y-85404918D01*
X150201345Y-85408499D01*
X150201362Y-85408500D01*
X150242500Y-85408500D01*
X150309539Y-85428185D01*
X150355294Y-85480989D01*
X150366500Y-85532500D01*
X150366500Y-87467500D01*
X150346815Y-87534539D01*
X150294011Y-87580294D01*
X150242500Y-87591500D01*
X150201345Y-87591500D01*
X150140797Y-87598011D01*
X150140795Y-87598011D01*
X150003795Y-87649111D01*
X149886739Y-87736739D01*
X149799111Y-87853795D01*
X149748011Y-87990795D01*
X149748011Y-87990797D01*
X149741500Y-88051345D01*
X149741500Y-89448654D01*
X149748011Y-89509202D01*
X149748011Y-89509204D01*
X149797575Y-89642086D01*
X149799111Y-89646204D01*
X149886739Y-89763261D01*
X150003796Y-89850889D01*
X150118297Y-89893596D01*
X150135463Y-89899999D01*
X150140799Y-89901989D01*
X150168050Y-89904918D01*
X150201345Y-89908499D01*
X150201362Y-89908500D01*
X151848638Y-89908500D01*
X151848654Y-89908499D01*
X151875692Y-89905591D01*
X151909201Y-89901989D01*
X151914537Y-89899999D01*
X151931703Y-89893596D01*
X152046204Y-89850889D01*
X152163261Y-89763261D01*
X152250889Y-89646204D01*
X152301989Y-89509201D01*
X152305591Y-89475692D01*
X152308499Y-89448654D01*
X152308500Y-89448637D01*
X152308500Y-89447844D01*
X157700000Y-89447844D01*
X157706401Y-89507372D01*
X157706403Y-89507379D01*
X157756645Y-89642086D01*
X157756649Y-89642093D01*
X157842809Y-89757187D01*
X157842812Y-89757190D01*
X157957906Y-89843350D01*
X157957913Y-89843354D01*
X158092620Y-89893596D01*
X158092627Y-89893598D01*
X158152155Y-89899999D01*
X158152172Y-89900000D01*
X158725000Y-89900000D01*
X159225000Y-89900000D01*
X159797828Y-89900000D01*
X159797844Y-89899999D01*
X159857372Y-89893598D01*
X159857379Y-89893596D01*
X159992086Y-89843354D01*
X159992093Y-89843350D01*
X160107187Y-89757190D01*
X160107190Y-89757187D01*
X160193350Y-89642093D01*
X160193354Y-89642086D01*
X160243596Y-89507379D01*
X160243598Y-89507372D01*
X160249999Y-89447844D01*
X160250000Y-89447827D01*
X160250000Y-89000000D01*
X159225000Y-89000000D01*
X159225000Y-89900000D01*
X158725000Y-89900000D01*
X158725000Y-89000000D01*
X157700000Y-89000000D01*
X157700000Y-89447844D01*
X152308500Y-89447844D01*
X152308500Y-88052155D01*
X157700000Y-88052155D01*
X157700000Y-88500000D01*
X158725000Y-88500000D01*
X159225000Y-88500000D01*
X160250000Y-88500000D01*
X160250000Y-88052172D01*
X160249999Y-88052155D01*
X160243598Y-87992627D01*
X160243596Y-87992620D01*
X160193354Y-87857913D01*
X160193350Y-87857906D01*
X160107190Y-87742812D01*
X160107187Y-87742809D01*
X159992093Y-87656649D01*
X159992086Y-87656645D01*
X159857379Y-87606403D01*
X159857372Y-87606401D01*
X159797844Y-87600000D01*
X159225000Y-87600000D01*
X159225000Y-88500000D01*
X158725000Y-88500000D01*
X158725000Y-87600000D01*
X158152155Y-87600000D01*
X158092627Y-87606401D01*
X158092620Y-87606403D01*
X157957913Y-87656645D01*
X157957906Y-87656649D01*
X157842812Y-87742809D01*
X157842809Y-87742812D01*
X157756649Y-87857906D01*
X157756645Y-87857913D01*
X157706403Y-87992620D01*
X157706401Y-87992627D01*
X157700000Y-88052155D01*
X152308500Y-88052155D01*
X152308500Y-88051362D01*
X152308499Y-88051345D01*
X152305157Y-88020270D01*
X152301989Y-87990799D01*
X152250889Y-87853796D01*
X152163261Y-87736739D01*
X152046204Y-87649111D01*
X151909203Y-87598011D01*
X151848654Y-87591500D01*
X151848638Y-87591500D01*
X151807500Y-87591500D01*
X151740461Y-87571815D01*
X151694706Y-87519011D01*
X151683500Y-87467500D01*
X151683500Y-85532500D01*
X151703185Y-85465461D01*
X151755989Y-85419706D01*
X151807500Y-85408500D01*
X151848638Y-85408500D01*
X151848654Y-85408499D01*
X151875692Y-85405591D01*
X151909201Y-85401989D01*
X151914537Y-85399999D01*
X151931703Y-85393596D01*
X152046204Y-85350889D01*
X152163261Y-85263261D01*
X152250889Y-85146204D01*
X152301989Y-85009201D01*
X152305591Y-84975692D01*
X152308499Y-84948654D01*
X152308500Y-84948637D01*
X152308500Y-84947844D01*
X157700000Y-84947844D01*
X157706401Y-85007372D01*
X157706403Y-85007379D01*
X157756645Y-85142086D01*
X157756649Y-85142093D01*
X157842809Y-85257187D01*
X157842812Y-85257190D01*
X157957906Y-85343350D01*
X157957913Y-85343354D01*
X158092620Y-85393596D01*
X158092627Y-85393598D01*
X158152155Y-85399999D01*
X158152172Y-85400000D01*
X158725000Y-85400000D01*
X159225000Y-85400000D01*
X159797828Y-85400000D01*
X159797844Y-85399999D01*
X159857372Y-85393598D01*
X159857379Y-85393596D01*
X159992086Y-85343354D01*
X159992093Y-85343350D01*
X160107187Y-85257190D01*
X160107190Y-85257187D01*
X160193350Y-85142093D01*
X160193354Y-85142086D01*
X160243596Y-85007379D01*
X160243598Y-85007372D01*
X160249999Y-84947844D01*
X160250000Y-84947827D01*
X160250000Y-84500000D01*
X159225000Y-84500000D01*
X159225000Y-85400000D01*
X158725000Y-85400000D01*
X158725000Y-84500000D01*
X157700000Y-84500000D01*
X157700000Y-84947844D01*
X152308500Y-84947844D01*
X152308500Y-83552155D01*
X157700000Y-83552155D01*
X157700000Y-84000000D01*
X158725000Y-84000000D01*
X159225000Y-84000000D01*
X160250000Y-84000000D01*
X160250000Y-83552172D01*
X160249999Y-83552155D01*
X160243598Y-83492627D01*
X160243596Y-83492620D01*
X160193354Y-83357913D01*
X160193350Y-83357906D01*
X160107190Y-83242812D01*
X160107187Y-83242809D01*
X159992093Y-83156649D01*
X159992086Y-83156645D01*
X159857379Y-83106403D01*
X159857372Y-83106401D01*
X159797844Y-83100000D01*
X159225000Y-83100000D01*
X159225000Y-84000000D01*
X158725000Y-84000000D01*
X158725000Y-83100000D01*
X158152155Y-83100000D01*
X158092627Y-83106401D01*
X158092620Y-83106403D01*
X157957913Y-83156645D01*
X157957906Y-83156649D01*
X157842812Y-83242809D01*
X157842809Y-83242812D01*
X157756649Y-83357906D01*
X157756645Y-83357913D01*
X157706403Y-83492620D01*
X157706401Y-83492627D01*
X157700000Y-83552155D01*
X152308500Y-83552155D01*
X152308500Y-83551362D01*
X152308499Y-83551345D01*
X152305157Y-83520270D01*
X152301989Y-83490799D01*
X152250889Y-83353796D01*
X152163261Y-83236739D01*
X152046204Y-83149111D01*
X151909203Y-83098011D01*
X151848654Y-83091500D01*
X151848638Y-83091500D01*
X151807500Y-83091500D01*
X151740461Y-83071815D01*
X151694706Y-83019011D01*
X151683500Y-82967500D01*
X151683500Y-76960140D01*
X151658195Y-76832928D01*
X151658194Y-76832927D01*
X151658194Y-76832923D01*
X151608555Y-76713083D01*
X151594519Y-76692077D01*
X151594517Y-76692074D01*
X151594517Y-76692073D01*
X151536489Y-76605228D01*
X151536486Y-76605225D01*
X151324388Y-76393128D01*
X151290903Y-76331805D01*
X151290469Y-76329724D01*
X151277430Y-76264169D01*
X151216483Y-76117032D01*
X151128003Y-75984611D01*
X151127998Y-75984605D01*
X151015394Y-75872001D01*
X151015387Y-75871995D01*
X150882969Y-75783517D01*
X150735831Y-75722570D01*
X150735823Y-75722568D01*
X150579634Y-75691500D01*
X150579630Y-75691500D01*
X150420370Y-75691500D01*
X150420365Y-75691500D01*
X150264176Y-75722568D01*
X150264168Y-75722570D01*
X150117030Y-75783517D01*
X149984612Y-75871995D01*
X149984605Y-75872001D01*
X149872001Y-75984605D01*
X149871995Y-75984612D01*
X149783517Y-76117030D01*
X149722570Y-76264168D01*
X149722568Y-76264176D01*
X149691500Y-76420365D01*
X125158500Y-76420365D01*
X125158500Y-64314038D01*
X164439500Y-64314038D01*
X164439500Y-64565961D01*
X164478910Y-64814785D01*
X164556760Y-65054383D01*
X164671132Y-65278848D01*
X164819201Y-65482649D01*
X164819205Y-65482654D01*
X164997345Y-65660794D01*
X164997350Y-65660798D01*
X165157880Y-65777429D01*
X165201155Y-65808870D01*
X165344184Y-65881747D01*
X165425616Y-65923239D01*
X165425618Y-65923239D01*
X165425621Y-65923241D01*
X165665215Y-66001090D01*
X165914038Y-66040500D01*
X165914039Y-66040500D01*
X166165961Y-66040500D01*
X166165962Y-66040500D01*
X166414785Y-66001090D01*
X166654379Y-65923241D01*
X166878845Y-65808870D01*
X167082656Y-65660793D01*
X167260793Y-65482656D01*
X167408870Y-65278845D01*
X167523241Y-65054379D01*
X167601090Y-64814785D01*
X167640500Y-64565962D01*
X167640500Y-64314038D01*
X167601090Y-64065215D01*
X167523241Y-63825621D01*
X167523239Y-63825618D01*
X167523239Y-63825616D01*
X167481747Y-63744184D01*
X167408870Y-63601155D01*
X167389952Y-63575117D01*
X167260798Y-63397350D01*
X167260794Y-63397345D01*
X167082654Y-63219205D01*
X167082649Y-63219201D01*
X166878848Y-63071132D01*
X166878847Y-63071131D01*
X166878845Y-63071130D01*
X166808747Y-63035413D01*
X166654383Y-62956760D01*
X166414785Y-62878910D01*
X166165962Y-62839500D01*
X165914038Y-62839500D01*
X165789626Y-62859205D01*
X165665214Y-62878910D01*
X165425616Y-62956760D01*
X165201151Y-63071132D01*
X164997350Y-63219201D01*
X164997345Y-63219205D01*
X164819205Y-63397345D01*
X164819201Y-63397350D01*
X164671132Y-63601151D01*
X164556760Y-63825616D01*
X164478910Y-64065214D01*
X164439500Y-64314038D01*
X125158500Y-64314038D01*
X125158500Y-59034954D01*
X125178185Y-58967915D01*
X125230989Y-58922160D01*
X125300147Y-58912216D01*
X125306692Y-58913337D01*
X125408055Y-58933500D01*
X125408058Y-58933500D01*
X125591944Y-58933500D01*
X125591945Y-58933499D01*
X125772292Y-58897626D01*
X125842971Y-58868350D01*
X125947807Y-58824926D01*
X125948328Y-58826185D01*
X126009932Y-58813350D01*
X126051885Y-58825668D01*
X126052193Y-58824926D01*
X126227703Y-58897624D01*
X126227708Y-58897626D01*
X126365321Y-58924999D01*
X126408053Y-58933499D01*
X126408056Y-58933500D01*
X126408058Y-58933500D01*
X126591944Y-58933500D01*
X126693308Y-58913337D01*
X126762900Y-58919564D01*
X126818077Y-58962427D01*
X126841322Y-59028316D01*
X126841500Y-59034954D01*
X126841500Y-59935143D01*
X126841500Y-60064857D01*
X126841500Y-60064859D01*
X126841499Y-60064859D01*
X126866804Y-60192071D01*
X126866806Y-60192077D01*
X126916443Y-60311913D01*
X126916447Y-60311920D01*
X126988510Y-60419771D01*
X128080227Y-61511488D01*
X128080231Y-61511491D01*
X128188076Y-61583551D01*
X128188080Y-61583553D01*
X128188083Y-61583555D01*
X128307923Y-61633195D01*
X128414036Y-61654301D01*
X128435143Y-61658500D01*
X138064859Y-61658500D01*
X138150444Y-61641475D01*
X138192077Y-61633194D01*
X138311917Y-61583555D01*
X138419769Y-61511491D01*
X142511490Y-57419769D01*
X142583555Y-57311917D01*
X142633194Y-57192077D01*
X142637040Y-57172743D01*
X142645335Y-57131040D01*
X142658500Y-57064859D01*
X142658500Y-50170072D01*
X142678185Y-50103033D01*
X142689448Y-50089055D01*
X142689042Y-50088708D01*
X142692197Y-50085012D01*
X142692206Y-50085004D01*
X142817894Y-49912009D01*
X142914972Y-49721483D01*
X142981049Y-49518116D01*
X143014500Y-49306916D01*
X143014500Y-49124000D01*
X143034185Y-49056961D01*
X143086989Y-49011206D01*
X143138500Y-49000000D01*
X144237500Y-49000000D01*
X144304539Y-49019685D01*
X144350294Y-49072489D01*
X144361500Y-49124000D01*
X144361500Y-50098654D01*
X144368011Y-50159202D01*
X144368011Y-50159204D01*
X144408968Y-50269011D01*
X144419111Y-50296204D01*
X144506739Y-50413261D01*
X144623796Y-50500889D01*
X144760799Y-50551989D01*
X144788050Y-50554918D01*
X144821345Y-50558499D01*
X144821362Y-50558500D01*
X146618638Y-50558500D01*
X146618654Y-50558499D01*
X146645692Y-50555591D01*
X146679201Y-50551989D01*
X146816204Y-50500889D01*
X146933261Y-50413261D01*
X147020889Y-50296204D01*
X147065957Y-50175371D01*
X147107827Y-50119442D01*
X147173291Y-50095025D01*
X147241564Y-50109877D01*
X147269818Y-50131028D01*
X147374996Y-50236206D01*
X147547991Y-50361894D01*
X147601500Y-50389158D01*
X147738516Y-50458972D01*
X147738519Y-50458973D01*
X147840200Y-50492010D01*
X147941884Y-50525049D01*
X148153084Y-50558500D01*
X148153085Y-50558500D01*
X148366915Y-50558500D01*
X148366916Y-50558500D01*
X148578116Y-50525049D01*
X148781483Y-50458972D01*
X148972009Y-50361894D01*
X149145004Y-50236206D01*
X149296206Y-50085004D01*
X149421894Y-49912009D01*
X149421896Y-49912004D01*
X149424270Y-49908132D01*
X149476080Y-49861254D01*
X149545009Y-49849829D01*
X149609173Y-49877483D01*
X149635730Y-49908132D01*
X149638103Y-49912005D01*
X149638106Y-49912009D01*
X149763794Y-50085004D01*
X149914996Y-50236206D01*
X150087991Y-50361894D01*
X150141500Y-50389158D01*
X150278516Y-50458972D01*
X150278519Y-50458973D01*
X150380200Y-50492010D01*
X150481884Y-50525049D01*
X150693084Y-50558500D01*
X150693085Y-50558500D01*
X150906915Y-50558500D01*
X150906916Y-50558500D01*
X151118116Y-50525049D01*
X151321483Y-50458972D01*
X151512009Y-50361894D01*
X151685004Y-50236206D01*
X151836206Y-50085004D01*
X151961894Y-49912009D01*
X151961896Y-49912004D01*
X151964270Y-49908132D01*
X152016080Y-49861254D01*
X152085009Y-49849829D01*
X152149173Y-49877483D01*
X152175730Y-49908132D01*
X152178103Y-49912005D01*
X152178106Y-49912009D01*
X152303794Y-50085004D01*
X152454996Y-50236206D01*
X152627991Y-50361894D01*
X152681500Y-50389158D01*
X152818516Y-50458972D01*
X152818519Y-50458973D01*
X152920200Y-50492010D01*
X153021884Y-50525049D01*
X153233084Y-50558500D01*
X153233085Y-50558500D01*
X153446915Y-50558500D01*
X153446916Y-50558500D01*
X153658116Y-50525049D01*
X153861483Y-50458972D01*
X154052009Y-50361894D01*
X154225004Y-50236206D01*
X154376206Y-50085004D01*
X154501894Y-49912009D01*
X154501896Y-49912004D01*
X154504270Y-49908132D01*
X154556080Y-49861254D01*
X154625009Y-49849829D01*
X154689173Y-49877483D01*
X154715730Y-49908132D01*
X154718103Y-49912005D01*
X154718106Y-49912009D01*
X154843794Y-50085004D01*
X154994996Y-50236206D01*
X155167991Y-50361894D01*
X155221500Y-50389158D01*
X155358516Y-50458972D01*
X155358519Y-50458973D01*
X155460200Y-50492010D01*
X155561884Y-50525049D01*
X155773084Y-50558500D01*
X155773085Y-50558500D01*
X155866232Y-50558500D01*
X155933271Y-50578185D01*
X155979026Y-50630989D01*
X155988970Y-50700147D01*
X155959945Y-50763703D01*
X155953913Y-50770181D01*
X151668915Y-55055181D01*
X151607592Y-55088666D01*
X151581234Y-55091500D01*
X150201345Y-55091500D01*
X150140797Y-55098011D01*
X150140795Y-55098011D01*
X150003795Y-55149111D01*
X149886739Y-55236739D01*
X149799111Y-55353795D01*
X149748011Y-55490795D01*
X149748011Y-55490797D01*
X149741500Y-55551345D01*
X149741500Y-56948654D01*
X149748011Y-57009202D01*
X149748011Y-57009204D01*
X149782762Y-57102371D01*
X149799111Y-57146204D01*
X149886739Y-57263261D01*
X150003796Y-57350889D01*
X150118297Y-57393596D01*
X150135463Y-57399999D01*
X150140799Y-57401989D01*
X150168050Y-57404918D01*
X150201345Y-57408499D01*
X150201362Y-57408500D01*
X150242500Y-57408500D01*
X150309539Y-57428185D01*
X150355294Y-57480989D01*
X150366500Y-57532500D01*
X150366500Y-59467500D01*
X150346815Y-59534539D01*
X150294011Y-59580294D01*
X150242500Y-59591500D01*
X150201345Y-59591500D01*
X150140797Y-59598011D01*
X150140795Y-59598011D01*
X150003795Y-59649111D01*
X149886739Y-59736739D01*
X149799111Y-59853795D01*
X149748011Y-59990795D01*
X149748011Y-59990797D01*
X149741500Y-60051345D01*
X149741500Y-61448654D01*
X149748011Y-61509202D01*
X149748011Y-61509204D01*
X149775744Y-61583556D01*
X149799111Y-61646204D01*
X149886739Y-61763261D01*
X150003796Y-61850889D01*
X150095202Y-61884982D01*
X150135463Y-61899999D01*
X150140799Y-61901989D01*
X150168050Y-61904918D01*
X150201345Y-61908499D01*
X150201362Y-61908500D01*
X151848638Y-61908500D01*
X151848654Y-61908499D01*
X151875692Y-61905591D01*
X151909201Y-61901989D01*
X151914537Y-61899999D01*
X151931703Y-61893596D01*
X152046204Y-61850889D01*
X152163261Y-61763261D01*
X152250889Y-61646204D01*
X152301989Y-61509201D01*
X152305591Y-61475692D01*
X152308499Y-61448654D01*
X152308500Y-61448637D01*
X152308500Y-61447844D01*
X157700000Y-61447844D01*
X157706401Y-61507372D01*
X157706403Y-61507379D01*
X157756645Y-61642086D01*
X157756649Y-61642093D01*
X157842809Y-61757187D01*
X157842812Y-61757190D01*
X157957906Y-61843350D01*
X157957913Y-61843354D01*
X158092620Y-61893596D01*
X158092627Y-61893598D01*
X158152155Y-61899999D01*
X158152172Y-61900000D01*
X158725000Y-61900000D01*
X159225000Y-61900000D01*
X159797828Y-61900000D01*
X159797844Y-61899999D01*
X159857372Y-61893598D01*
X159857379Y-61893596D01*
X159992086Y-61843354D01*
X159992093Y-61843350D01*
X160107187Y-61757190D01*
X160107190Y-61757187D01*
X160193350Y-61642093D01*
X160193354Y-61642086D01*
X160243596Y-61507379D01*
X160243598Y-61507372D01*
X160249999Y-61447844D01*
X160250000Y-61447827D01*
X160250000Y-61000000D01*
X159225000Y-61000000D01*
X159225000Y-61900000D01*
X158725000Y-61900000D01*
X158725000Y-61000000D01*
X157700000Y-61000000D01*
X157700000Y-61447844D01*
X152308500Y-61447844D01*
X152308500Y-60052155D01*
X157700000Y-60052155D01*
X157700000Y-60500000D01*
X158725000Y-60500000D01*
X159225000Y-60500000D01*
X160250000Y-60500000D01*
X160250000Y-60052172D01*
X160249999Y-60052155D01*
X160243598Y-59992627D01*
X160243596Y-59992620D01*
X160193354Y-59857913D01*
X160193350Y-59857906D01*
X160107190Y-59742812D01*
X160107187Y-59742809D01*
X159992093Y-59656649D01*
X159992086Y-59656645D01*
X159857379Y-59606403D01*
X159857372Y-59606401D01*
X159797844Y-59600000D01*
X159225000Y-59600000D01*
X159225000Y-60500000D01*
X158725000Y-60500000D01*
X158725000Y-59600000D01*
X158152155Y-59600000D01*
X158092627Y-59606401D01*
X158092620Y-59606403D01*
X157957913Y-59656645D01*
X157957906Y-59656649D01*
X157842812Y-59742809D01*
X157842809Y-59742812D01*
X157756649Y-59857906D01*
X157756645Y-59857913D01*
X157706403Y-59992620D01*
X157706401Y-59992627D01*
X157700000Y-60052155D01*
X152308500Y-60052155D01*
X152308500Y-60051362D01*
X152308499Y-60051345D01*
X152305157Y-60020270D01*
X152301989Y-59990799D01*
X152250889Y-59853796D01*
X152163261Y-59736739D01*
X152046204Y-59649111D01*
X151909203Y-59598011D01*
X151848654Y-59591500D01*
X151848638Y-59591500D01*
X151807500Y-59591500D01*
X151740461Y-59571815D01*
X151694706Y-59519011D01*
X151683500Y-59467500D01*
X151683500Y-57532500D01*
X151703185Y-57465461D01*
X151755989Y-57419706D01*
X151807500Y-57408500D01*
X151848638Y-57408500D01*
X151848654Y-57408499D01*
X151875692Y-57405591D01*
X151909201Y-57401989D01*
X151914537Y-57399999D01*
X151931703Y-57393596D01*
X152046204Y-57350889D01*
X152163261Y-57263261D01*
X152250889Y-57146204D01*
X152301989Y-57009201D01*
X152306736Y-56965045D01*
X152308499Y-56948654D01*
X152308500Y-56948637D01*
X152308500Y-56947844D01*
X157700000Y-56947844D01*
X157706401Y-57007372D01*
X157706403Y-57007379D01*
X157756645Y-57142086D01*
X157756649Y-57142093D01*
X157842809Y-57257187D01*
X157842812Y-57257190D01*
X157957906Y-57343350D01*
X157957913Y-57343354D01*
X158092620Y-57393596D01*
X158092627Y-57393598D01*
X158152155Y-57399999D01*
X158152172Y-57400000D01*
X158725000Y-57400000D01*
X159225000Y-57400000D01*
X159797828Y-57400000D01*
X159797844Y-57399999D01*
X159857372Y-57393598D01*
X159857379Y-57393596D01*
X159992086Y-57343354D01*
X159992093Y-57343350D01*
X160107187Y-57257190D01*
X160107190Y-57257187D01*
X160193350Y-57142093D01*
X160193354Y-57142086D01*
X160243596Y-57007379D01*
X160243598Y-57007372D01*
X160249999Y-56947844D01*
X160250000Y-56947827D01*
X160250000Y-56500000D01*
X159225000Y-56500000D01*
X159225000Y-57400000D01*
X158725000Y-57400000D01*
X158725000Y-56500000D01*
X157700000Y-56500000D01*
X157700000Y-56947844D01*
X152308500Y-56947844D01*
X152308500Y-56258766D01*
X152328185Y-56191727D01*
X152344819Y-56171085D01*
X152963749Y-55552155D01*
X157700000Y-55552155D01*
X157700000Y-56000000D01*
X158725000Y-56000000D01*
X159225000Y-56000000D01*
X160250000Y-56000000D01*
X160250000Y-55552172D01*
X160249999Y-55552155D01*
X160243598Y-55492627D01*
X160243596Y-55492620D01*
X160193354Y-55357913D01*
X160193350Y-55357906D01*
X160107190Y-55242812D01*
X160107187Y-55242809D01*
X159992093Y-55156649D01*
X159992086Y-55156645D01*
X159857379Y-55106403D01*
X159857372Y-55106401D01*
X159797844Y-55100000D01*
X159225000Y-55100000D01*
X159225000Y-56000000D01*
X158725000Y-56000000D01*
X158725000Y-55100000D01*
X158152155Y-55100000D01*
X158092627Y-55106401D01*
X158092620Y-55106403D01*
X157957913Y-55156645D01*
X157957906Y-55156649D01*
X157842812Y-55242809D01*
X157842809Y-55242812D01*
X157756649Y-55357906D01*
X157756645Y-55357913D01*
X157706403Y-55492620D01*
X157706401Y-55492627D01*
X157700000Y-55552155D01*
X152963749Y-55552155D01*
X153054734Y-55461170D01*
X155279463Y-53236441D01*
X157964353Y-50551550D01*
X158025674Y-50518067D01*
X158090348Y-50521301D01*
X158100459Y-50524586D01*
X158101884Y-50525049D01*
X158313084Y-50558500D01*
X158313085Y-50558500D01*
X158526915Y-50558500D01*
X158526916Y-50558500D01*
X158738116Y-50525049D01*
X158941483Y-50458972D01*
X159132009Y-50361894D01*
X159305004Y-50236206D01*
X159456206Y-50085004D01*
X159581894Y-49912009D01*
X159581896Y-49912004D01*
X159584270Y-49908132D01*
X159636080Y-49861254D01*
X159705009Y-49849829D01*
X159769173Y-49877483D01*
X159795730Y-49908132D01*
X159798103Y-49912005D01*
X159798106Y-49912009D01*
X159923794Y-50085004D01*
X160074996Y-50236206D01*
X160247991Y-50361894D01*
X160301500Y-50389158D01*
X160438516Y-50458972D01*
X160438519Y-50458973D01*
X160540200Y-50492010D01*
X160641884Y-50525049D01*
X160853084Y-50558500D01*
X160853085Y-50558500D01*
X161066915Y-50558500D01*
X161066916Y-50558500D01*
X161278116Y-50525049D01*
X161481483Y-50458972D01*
X161672009Y-50361894D01*
X161845004Y-50236206D01*
X161996206Y-50085004D01*
X162121894Y-49912009D01*
X162121896Y-49912004D01*
X162124270Y-49908132D01*
X162176080Y-49861254D01*
X162245009Y-49849829D01*
X162309173Y-49877483D01*
X162335730Y-49908132D01*
X162338103Y-49912005D01*
X162338106Y-49912009D01*
X162463794Y-50085004D01*
X162614996Y-50236206D01*
X162787991Y-50361894D01*
X162841500Y-50389158D01*
X162978516Y-50458972D01*
X162978519Y-50458973D01*
X163080200Y-50492010D01*
X163181884Y-50525049D01*
X163393084Y-50558500D01*
X163393085Y-50558500D01*
X163606915Y-50558500D01*
X163606916Y-50558500D01*
X163818116Y-50525049D01*
X164021483Y-50458972D01*
X164212009Y-50361894D01*
X164385004Y-50236206D01*
X164536206Y-50085004D01*
X164661894Y-49912009D01*
X164758972Y-49721483D01*
X164825049Y-49518116D01*
X164858500Y-49306916D01*
X164858500Y-49124000D01*
X164878185Y-49056961D01*
X164930989Y-49011206D01*
X164982500Y-49000000D01*
X165804457Y-49000000D01*
X165871496Y-49019685D01*
X165917251Y-49072489D01*
X165928456Y-49123563D01*
X165964403Y-59332855D01*
X165964500Y-59360230D01*
X165964500Y-59375018D01*
X165964552Y-59375144D01*
X165964553Y-59375283D01*
X165964576Y-59375340D01*
X165964577Y-59375342D01*
X165970240Y-59388880D01*
X165970404Y-59389273D01*
X165975994Y-59402768D01*
X165976142Y-59402989D01*
X165986516Y-59413290D01*
X165986827Y-59413600D01*
X168468181Y-61894954D01*
X168501666Y-61956277D01*
X168504500Y-61982635D01*
X168504500Y-96107364D01*
X168484815Y-96174403D01*
X168468181Y-96195045D01*
X165997233Y-98665994D01*
X165975995Y-98687231D01*
X165964500Y-98714982D01*
X165964500Y-99231907D01*
X165963903Y-99244062D01*
X165952505Y-99359778D01*
X165947763Y-99383618D01*
X165917832Y-99482290D01*
X165915789Y-99489024D01*
X165906486Y-99511482D01*
X165854561Y-99608627D01*
X165841056Y-99628839D01*
X165771176Y-99713988D01*
X165753988Y-99731176D01*
X165668839Y-99801056D01*
X165648627Y-99814561D01*
X165551482Y-99866486D01*
X165529028Y-99875787D01*
X165487028Y-99888528D01*
X165423618Y-99907763D01*
X165399778Y-99912505D01*
X165291162Y-99923203D01*
X165284060Y-99923903D01*
X165271907Y-99924500D01*
X109288040Y-99924500D01*
X109286256Y-99924487D01*
X100755428Y-99801741D01*
X100688679Y-99781094D01*
X100643688Y-99727637D01*
X100633218Y-99678977D01*
X100610138Y-97334038D01*
X112369500Y-97334038D01*
X112369500Y-97585961D01*
X112408910Y-97834785D01*
X112486760Y-98074383D01*
X112601132Y-98298848D01*
X112749201Y-98502649D01*
X112749205Y-98502654D01*
X112927345Y-98680794D01*
X112927350Y-98680798D01*
X113037587Y-98760889D01*
X113131155Y-98828870D01*
X113274184Y-98901747D01*
X113355616Y-98943239D01*
X113355618Y-98943239D01*
X113355621Y-98943241D01*
X113595215Y-99021090D01*
X113844038Y-99060500D01*
X113844039Y-99060500D01*
X114095961Y-99060500D01*
X114095962Y-99060500D01*
X114344785Y-99021090D01*
X114584379Y-98943241D01*
X114808845Y-98828870D01*
X115012656Y-98680793D01*
X115190793Y-98502656D01*
X115338870Y-98298845D01*
X115453241Y-98074379D01*
X115531090Y-97834785D01*
X115570500Y-97585962D01*
X115570500Y-97334038D01*
X115531090Y-97085215D01*
X115453241Y-96845621D01*
X115453239Y-96845618D01*
X115453239Y-96845616D01*
X115403498Y-96747994D01*
X115338870Y-96621155D01*
X115292602Y-96557472D01*
X115190798Y-96417350D01*
X115190794Y-96417345D01*
X115012654Y-96239205D01*
X115012649Y-96239201D01*
X114808848Y-96091132D01*
X114808847Y-96091131D01*
X114808845Y-96091130D01*
X114738747Y-96055413D01*
X114584383Y-95976760D01*
X114344785Y-95898910D01*
X114287387Y-95889819D01*
X114095962Y-95859500D01*
X113844038Y-95859500D01*
X113719626Y-95879205D01*
X113595214Y-95898910D01*
X113355616Y-95976760D01*
X113131151Y-96091132D01*
X112927350Y-96239201D01*
X112927345Y-96239205D01*
X112749205Y-96417345D01*
X112749201Y-96417350D01*
X112601132Y-96621151D01*
X112486760Y-96845616D01*
X112408910Y-97085214D01*
X112369500Y-97334038D01*
X100610138Y-97334038D01*
X100135642Y-49125218D01*
X100154666Y-49057990D01*
X100207017Y-49011718D01*
X100259636Y-49000000D01*
X113515500Y-49000000D01*
X113582539Y-49019685D01*
G37*
%TD.AperFunction*%
%TA.AperFunction,Conductor*%
G36*
X142714075Y-97267007D02*
G01*
X142680000Y-97394174D01*
X142680000Y-97525826D01*
X142714075Y-97652993D01*
X142746988Y-97710000D01*
X141073012Y-97710000D01*
X141105925Y-97652993D01*
X141140000Y-97525826D01*
X141140000Y-97394174D01*
X141105925Y-97267007D01*
X141073012Y-97210000D01*
X142746988Y-97210000D01*
X142714075Y-97267007D01*
G37*
%TD.AperFunction*%
%TA.AperFunction,Conductor*%
G36*
X140465173Y-49877483D02*
G01*
X140491730Y-49908132D01*
X140494103Y-49912005D01*
X140494106Y-49912009D01*
X140619794Y-50085004D01*
X140770996Y-50236206D01*
X140943991Y-50361894D01*
X140997500Y-50389158D01*
X141134516Y-50458972D01*
X141134522Y-50458974D01*
X141214187Y-50484858D01*
X141255817Y-50498384D01*
X141313493Y-50537820D01*
X141340692Y-50602179D01*
X141341500Y-50616315D01*
X141341500Y-56675878D01*
X141321815Y-56742917D01*
X141305181Y-56763559D01*
X137763559Y-60305181D01*
X137702236Y-60338666D01*
X137675878Y-60341500D01*
X135889122Y-60341500D01*
X135822083Y-60321815D01*
X135776328Y-60269011D01*
X135766384Y-60199853D01*
X135795409Y-60136297D01*
X135801441Y-60129819D01*
X139627489Y-56303771D01*
X139627491Y-56303769D01*
X139699555Y-56195917D01*
X139749194Y-56076077D01*
X139774500Y-55948857D01*
X139774500Y-55819143D01*
X139774500Y-50463952D01*
X139794185Y-50396913D01*
X139825614Y-50363634D01*
X139856079Y-50341500D01*
X140001004Y-50236206D01*
X140152206Y-50085004D01*
X140277894Y-49912009D01*
X140277896Y-49912004D01*
X140280270Y-49908132D01*
X140332080Y-49861254D01*
X140401009Y-49849829D01*
X140465173Y-49877483D01*
G37*
%TD.AperFunction*%
%TA.AperFunction,Conductor*%
G36*
X137925173Y-49877483D02*
G01*
X137951730Y-49908132D01*
X137954103Y-49912005D01*
X137954106Y-49912009D01*
X138079794Y-50085004D01*
X138230996Y-50236206D01*
X138375486Y-50341184D01*
X138406386Y-50363634D01*
X138449051Y-50418964D01*
X138457500Y-50463952D01*
X138457500Y-55559878D01*
X138437815Y-55626917D01*
X138421181Y-55647559D01*
X134763559Y-59305181D01*
X134702236Y-59338666D01*
X134675878Y-59341500D01*
X129324122Y-59341500D01*
X129294681Y-59332855D01*
X129264695Y-59326332D01*
X129259679Y-59322577D01*
X129257083Y-59321815D01*
X129236441Y-59305181D01*
X129194819Y-59263559D01*
X129161334Y-59202236D01*
X129158500Y-59175878D01*
X129158500Y-59034954D01*
X129178185Y-58967915D01*
X129230989Y-58922160D01*
X129300147Y-58912216D01*
X129306692Y-58913337D01*
X129408055Y-58933500D01*
X129408058Y-58933500D01*
X129591944Y-58933500D01*
X129591945Y-58933499D01*
X129772292Y-58897626D01*
X129942178Y-58827257D01*
X129942180Y-58827256D01*
X130018112Y-58776519D01*
X130095072Y-58725097D01*
X130225097Y-58595072D01*
X130327257Y-58442178D01*
X130397626Y-58272292D01*
X130433500Y-58091942D01*
X130433500Y-57908058D01*
X130433500Y-57908055D01*
X130433499Y-57908053D01*
X130397626Y-57727708D01*
X130397624Y-57727703D01*
X130327258Y-57557823D01*
X130327256Y-57557819D01*
X130225100Y-57404932D01*
X130225094Y-57404924D01*
X130194819Y-57374649D01*
X130161334Y-57313326D01*
X130158500Y-57286968D01*
X130158500Y-53324122D01*
X130178185Y-53257083D01*
X130194819Y-53236441D01*
X130736441Y-52694819D01*
X130797764Y-52661334D01*
X130824122Y-52658500D01*
X134064859Y-52658500D01*
X134150444Y-52641475D01*
X134192077Y-52633194D01*
X134311917Y-52583555D01*
X134419769Y-52511491D01*
X136341255Y-50590003D01*
X136402576Y-50556520D01*
X136448331Y-50555213D01*
X136469084Y-50558500D01*
X136469085Y-50558500D01*
X136682915Y-50558500D01*
X136682916Y-50558500D01*
X136894116Y-50525049D01*
X137097483Y-50458972D01*
X137288009Y-50361894D01*
X137461004Y-50236206D01*
X137612206Y-50085004D01*
X137737894Y-49912009D01*
X137737896Y-49912004D01*
X137740270Y-49908132D01*
X137792080Y-49861254D01*
X137861009Y-49849829D01*
X137925173Y-49877483D01*
G37*
%TD.AperFunction*%
%TA.AperFunction,Conductor*%
G36*
X129677917Y-51678185D02*
G01*
X129723672Y-51730989D01*
X129733616Y-51800147D01*
X129704591Y-51863703D01*
X129698559Y-51870181D01*
X128988513Y-52580225D01*
X128988507Y-52580232D01*
X128936212Y-52658499D01*
X128936212Y-52658500D01*
X128916443Y-52688085D01*
X128916442Y-52688087D01*
X128866807Y-52807918D01*
X128866804Y-52807928D01*
X128841500Y-52935140D01*
X128841500Y-56965045D01*
X128821815Y-57032084D01*
X128769011Y-57077839D01*
X128699853Y-57087783D01*
X128693309Y-57086662D01*
X128591946Y-57066500D01*
X128591942Y-57066500D01*
X128408058Y-57066500D01*
X128408055Y-57066500D01*
X128227715Y-57102372D01*
X128227703Y-57102375D01*
X128052193Y-57175074D01*
X128051672Y-57173817D01*
X127990048Y-57186647D01*
X127948113Y-57174333D01*
X127947807Y-57175074D01*
X127772296Y-57102375D01*
X127772284Y-57102372D01*
X127591945Y-57066500D01*
X127591942Y-57066500D01*
X127408058Y-57066500D01*
X127408053Y-57066500D01*
X127306691Y-57086662D01*
X127237099Y-57080435D01*
X127181922Y-57037571D01*
X127158678Y-56971682D01*
X127158500Y-56965045D01*
X127158500Y-53824122D01*
X127178185Y-53757083D01*
X127194819Y-53736441D01*
X129236441Y-51694819D01*
X129297764Y-51661334D01*
X129324122Y-51658500D01*
X129610878Y-51658500D01*
X129677917Y-51678185D01*
G37*
%TD.AperFunction*%
%TD*%
M02*
